<?xml version="1.0" standalone="no"?>
<!DOCTYPE svg PUBLIC "-//W3C//DTD SVG 20010904//EN"
 "http://www.w3.org/TR/2001/REC-SVG-20010904/DTD/svg10.dtd">
<svg version="1.0" xmlns="http://www.w3.org/2000/svg"
 width="499.000000pt" height="499.000000pt" viewBox="0 0 499.000000 499.000000"
 preserveAspectRatio="xMidYMid meet">
<metadata>
Created by potrace 1.14, written by Peter Selinger 2001-2017
</metadata>
<g transform="translate(0.000000,499.000000) scale(0.100000,-0.100000)"
fill="#000000" stroke="none">
<path d="M4960 2495 l0 -2465 -2310 0 -2310 0 20 35 c22 39 26 65 10 65 -5 0
-10 -7 -10 -15 0 -8 -4 -15 -10 -15 -13 0 -13 6 2 47 14 39 24 42 32 9 3 -13
13 -26 21 -30 13 -4 12 0 -2 26 -10 17 -22 39 -28 49 -11 22 -30 26 -22 5 3
-8 -4 -36 -17 -63 -35 -72 -40 -101 -19 -106 10 -3 -57 -5 -149 -6 -142 -1
-168 -3 -168 -16 0 -13 284 -15 2495 -15 l2495 0 0 2480 c0 2198 -2 2480 -15
2480 -13 0 -15 -281 -15 -2465z"/>
<path d="M1855 3882 c-51 -24 -88 -78 -125 -183 -42 -119 -51 -174 -34 -215 9
-22 10 -35 3 -39 -9 -6 -59 -109 -90 -185 -7 -19 -14 -62 -14 -95 0 -50 7 -74
42 -145 41 -84 77 -196 67 -212 -8 -13 7 -78 17 -72 5 3 7 9 4 13 -2 5 -5 44
-6 87 -1 48 -6 85 -14 94 -18 21 -30 65 -16 56 6 -4 11 -13 11 -20 0 -8 6 -18
13 -24 11 -9 13 0 9 51 -2 44 0 58 7 47 14 -20 4 145 -10 182 -10 24 -7 36 14
80 14 29 29 65 32 81 4 15 11 27 15 27 4 0 26 17 49 39 64 61 70 60 241 -22
25 -12 58 -31 74 -41 21 -14 27 -15 24 -5 -2 8 -18 20 -34 28 -31 15 -42 21
-114 58 -45 23 -45 23 -10 17 32 -6 141 -61 200 -102 l25 -17 -17 27 c-10 15
-18 30 -18 33 0 3 23 -4 50 -14 28 -11 53 -15 56 -10 3 5 0 9 -6 9 -14 0 -34
20 -43 43 -8 21 -3 21 28 1 17 -11 36 -14 55 -10 17 3 30 1 30 -4 0 -5 12 -13
28 -16 34 -9 47 -27 24 -36 -16 -6 -16 -7 0 -7 10 -1 32 -10 50 -21 18 -11 39
-20 46 -20 24 0 101 -40 136 -70 18 -16 43 -53 55 -80 12 -28 28 -53 36 -56
20 -8 63 -85 64 -114 0 -50 21 -164 31 -174 13 -13 13 -62 0 -85 -5 -10 -15
-52 -21 -92 -6 -41 -15 -78 -19 -84 -4 -5 -11 -21 -14 -35 -7 -24 -6 -24 8 -6
15 19 16 19 16 -8 0 -26 -28 -77 -54 -101 -15 -14 -68 -85 -83 -112 -19 -33
-17 -77 2 -69 12 4 15 -5 15 -48 0 -29 -3 -56 -7 -60 -8 -8 -41 88 -42 122 -1
12 -6 22 -12 22 -8 0 -10 -12 -6 -34 3 -19 3 -37 -1 -39 -4 -2 -1 -2 6 -1 11
3 17 -20 14 -56 -1 -8 3 -25 10 -37 6 -13 7 -33 3 -50 -8 -28 -8 -28 -16 12
-5 22 -11 55 -15 73 -4 21 -14 36 -28 42 -12 4 -34 27 -50 50 -26 40 -27 41
-4 29 19 -9 17 -5 -9 23 -18 19 -33 37 -33 42 0 4 15 -3 33 -15 l32 -23 -20
24 c-11 13 -28 32 -37 42 -10 9 -15 24 -12 33 4 8 1 15 -6 15 -6 0 -8 -4 -5
-10 10 -16 -11 -12 -25 5 -17 20 -31 19 -23 -2 6 -16 5 -16 -10 -4 -15 12 -17
11 -17 -3 0 -26 -14 -19 -62 32 -24 26 -53 52 -64 59 -18 11 -18 12 3 12 13 1
28 -8 35 -19 15 -23 33 -27 24 -5 -3 8 -2 15 3 15 4 0 6 10 4 23 -4 17 -12 22
-41 24 -20 1 -38 7 -40 13 -4 10 -83 -27 -90 -42 -6 -13 -20 -9 -26 8 -3 8 -2
12 4 9 6 -3 10 -2 10 2 0 5 -18 9 -39 10 -32 2 -39 -1 -34 -13 3 -8 14 -19 24
-25 11 -5 19 -18 19 -28 0 -19 -79 -91 -99 -91 -7 0 -14 -7 -17 -15 -4 -8 -10
-15 -15 -15 -6 0 -5 9 1 21 16 28 7 33 -15 9 -25 -27 -31 -116 -11 -150 28
-46 55 -104 50 -109 -8 -8 -165 159 -159 169 3 6 17 -2 30 -18 14 -15 25 -22
25 -15 0 6 -4 15 -10 18 -5 3 -10 13 -10 21 0 9 -27 46 -60 82 -33 37 -60 71
-60 77 -1 5 -7 24 -15 40 l-15 30 4 -27 c2 -16 0 -28 -5 -28 -4 0 -8 26 -8 58
0 31 -7 84 -16 117 -16 60 -21 72 -29 64 -7 -7 40 -310 53 -342 6 -16 11 -43
11 -61 0 -19 13 -52 30 -79 17 -26 30 -52 30 -57 0 -6 -16 -18 -35 -27 -319
-163 -662 -333 -668 -333 -5 0 -41 -16 -81 -35 -40 -19 -78 -35 -85 -35 -6 0
-19 -4 -29 -10 -56 -31 -254 -120 -266 -120 -8 0 -33 -17 -54 -37 -42 -41 -56
-80 -87 -238 -10 -49 -20 -101 -23 -114 -3 -16 -1 -22 7 -17 6 4 11 16 11 27
0 11 5 17 10 14 6 -3 10 -15 10 -26 0 -10 5 -19 10 -19 6 0 10 13 10 29 0 32
21 46 40 28 10 -10 11 -1 6 41 -4 28 -3 52 1 52 5 0 19 -22 32 -50 13 -27 29
-50 36 -50 7 0 17 -17 23 -37 8 -32 10 -34 11 -12 2 44 -10 86 -30 108 -11 11
-20 35 -20 53 -2 29 -2 30 -6 6 -4 -26 -5 -26 -22 -9 -10 10 -20 25 -24 34 -3
9 -11 17 -16 17 -9 0 -24 -40 -26 -70 -1 -8 -9 -31 -19 -50 -17 -35 -17 -35
-11 -5 3 17 10 57 15 90 10 67 39 140 67 171 31 34 70 49 95 36 23 -11 23 -11
-4 -11 -45 -1 -43 -21 1 -21 23 0 41 4 41 9 0 4 18 20 40 35 22 14 40 24 40
22 0 -3 28 8 63 24 34 17 67 30 74 30 6 0 13 3 15 8 4 8 89 52 102 52 5 0 2
-8 -5 -17 -8 -10 1 -5 19 10 19 15 43 27 55 27 17 0 19 2 8 9 -16 10 -2 16 69
26 25 4 61 17 80 29 l35 21 -27 3 c-16 2 -28 8 -28 14 0 7 15 9 40 5 40 -5 61
7 108 67 9 12 30 16 77 16 61 0 65 -2 66 -22 l0 -23 16 23 c18 26 33 29 33 6
0 -11 6 -14 20 -9 11 4 20 2 20 -4 0 -6 7 -11 15 -11 10 0 15 -10 15 -31 0
-16 4 -28 9 -24 5 3 13 0 17 -6 4 -8 3 -9 -4 -5 -20 12 -13 -4 14 -32 14 -15
32 -42 40 -60 13 -30 41 -66 87 -114 21 -22 23 -35 2 -18 -9 7 -18 11 -20 8
-3 -3 14 -20 37 -38 26 -21 39 -28 35 -17 -3 9 -2 17 3 17 6 0 10 -8 11 -17 0
-10 7 -36 14 -58 l14 -40 -5 49 c-4 33 -2 46 5 41 6 -3 11 -23 11 -44 0 -21 3
-41 7 -45 4 -4 8 -13 8 -19 1 -7 9 -29 19 -51 9 -21 20 -60 23 -87 3 -27 10
-52 15 -55 5 -3 7 5 4 18 -3 12 -8 39 -10 59 -3 20 -10 48 -16 63 -5 15 -9 37
-9 49 1 12 -2 33 -7 47 -4 14 -9 45 -10 70 -6 76 -8 86 -26 104 -22 22 -23 30
-2 22 9 -4 -1 15 -22 41 -23 28 -32 44 -21 40 14 -5 14 -1 -5 23 -12 17 -25
30 -29 30 -4 0 -10 7 -13 16 -5 12 -2 15 11 10 15 -6 16 -5 1 11 -14 17 -27
62 -48 176 -9 46 -5 77 9 77 3 0 25 -34 49 -75 41 -73 84 -114 157 -152 28
-15 29 -15 16 0 -17 22 -13 21 46 -4 26 -11 67 -22 90 -25 24 -2 51 -8 60 -13
10 -5 46 -17 81 -27 55 -15 68 -16 100 -4 106 37 256 174 302 274 15 34 34 77
43 96 15 33 16 34 16 9 1 -15 8 -44 17 -65 13 -32 14 -47 4 -96 -6 -32 -17
-73 -25 -92 -8 -18 -12 -36 -9 -39 3 -3 1 -14 -5 -24 -9 -17 -20 -75 -24 -129
-1 -11 -9 -29 -17 -39 -10 -12 -16 -48 -18 -119 l-3 -101 27 70 c14 39 28 81
31 95 10 51 13 54 28 34 14 -19 14 -19 15 1 0 30 51 125 67 125 11 0 14 15 11
65 -3 76 -18 88 -18 15 0 -27 -4 -50 -10 -50 -5 0 -10 -7 -10 -15 0 -8 -4 -15
-10 -15 -5 0 -10 -6 -10 -12 0 -7 -12 -24 -25 -37 -33 -30 -32 -10 0 25 14 15
25 37 25 48 0 12 4 26 9 32 17 16 15 116 -2 148 -9 16 -13 34 -10 39 3 5 12
-1 19 -14 l13 -24 1 25 c1 25 1 25 17 -5 21 -38 55 -66 68 -55 17 14 71 -18
88 -53 9 -18 16 -25 16 -16 1 8 -10 38 -24 65 -14 27 -25 50 -25 51 0 5 71
-11 100 -24 45 -19 80 -28 130 -33 11 -1 9 -4 -5 -10 -16 -7 -13 -9 17 -9 42
-1 64 -21 23 -21 -15 0 -24 -4 -20 -10 3 -5 14 -10 23 -10 10 0 34 -9 55 -20
20 -11 42 -20 48 -20 6 0 23 -8 37 -19 15 -10 59 -30 97 -44 103 -37 105 -38
99 -48 -3 -5 6 -9 20 -9 13 0 31 -6 38 -13 7 -7 28 -18 45 -25 18 -6 38 -16
45 -21 7 -6 39 -32 71 -57 31 -26 60 -57 63 -70 3 -13 10 -22 14 -19 16 10
-35 84 -67 99 -18 8 -39 26 -48 40 -15 22 -63 58 -105 78 -11 5 -9 7 8 7 12 1
22 -4 22 -9 0 -6 12 -15 28 -22 58 -23 132 -58 132 -61 0 -3 -12 -2 -27 1 -27
4 -27 4 -8 -12 11 -8 36 -16 55 -17 19 -1 27 -3 18 -6 -10 -2 -18 -7 -18 -9 0
-12 21 -42 54 -77 20 -21 39 -49 42 -63 13 -53 30 -17 26 56 -1 24 0 24 13 6
10 -14 11 -24 4 -38 -11 -20 17 -142 31 -133 4 2 14 -17 23 -43 16 -47 16 -47
16 -12 0 19 -11 58 -24 85 -26 52 -32 80 -15 70 6 -3 10 -15 10 -25 0 -11 9
-36 19 -57 11 -21 22 -58 26 -83 4 -25 11 -50 16 -56 14 -17 21 -145 10 -179
-9 -29 -9 -29 -10 13 -1 26 -5 41 -11 37 -15 -9 -11 -135 6 -175 l14 -35 -5
57 c-3 33 -1 59 5 63 6 4 10 -19 10 -62 0 -37 4 -85 9 -106 10 -43 51 -108 63
-101 9 6 -9 45 -25 55 -5 4 -7 13 -5 20 2 7 14 -3 27 -25 20 -32 23 -46 18
-99 -3 -34 -15 -81 -26 -104 -12 -23 -21 -46 -21 -51 0 -5 -7 -15 -15 -22 -17
-14 -20 -56 -5 -65 6 -3 10 3 10 14 0 11 5 23 10 26 6 3 10 13 10 22 0 9 12
41 27 72 38 81 42 156 11 223 -14 29 -30 65 -36 81 -6 15 -16 27 -22 27 -7 0
-9 8 -5 19 3 10 0 31 -6 47 -7 16 -11 58 -10 94 2 57 -18 206 -35 265 -3 11
-19 48 -35 83 -16 34 -29 67 -29 73 0 6 -8 23 -18 37 -10 15 -21 34 -24 43 -4
9 -32 30 -65 47 -205 108 -257 134 -338 166 -49 20 -103 43 -120 50 -16 8 -48
21 -70 30 -22 10 -67 31 -100 48 -33 17 -82 42 -108 55 -63 32 -205 80 -263
89 -36 5 -53 15 -86 50 -71 75 -72 79 -53 127 9 23 23 78 30 122 7 44 20 108
28 142 8 35 12 65 7 68 -12 8 -18 78 -8 98 5 10 4 33 -2 59 -7 22 -9 57 -5 76
6 33 7 33 26 16 20 -18 27 -84 9 -84 -5 0 -10 -10 -10 -22 1 -22 1 -22 12 -3
6 11 15 23 20 26 5 3 10 26 12 51 2 39 0 45 -16 40 -10 -2 -18 0 -18 5 0 5
-11 15 -25 21 -19 9 -25 19 -25 42 0 16 -4 30 -10 30 -5 0 -10 7 -10 15 0 8
-4 15 -9 15 -4 0 -11 17 -14 38 -3 20 -9 48 -13 62 -12 43 11 9 26 -39 8 -25
25 -55 38 -68 l23 -23 -6 47 c-4 35 -3 42 4 27 14 -32 35 -43 26 -14 -5 16 -3
21 6 18 6 -2 14 -15 16 -28 2 -14 8 -29 13 -34 6 -6 10 -26 11 -45 l1 -36 13
40 c14 45 7 68 -32 98 -27 22 -29 35 -7 52 22 15 33 86 33 210 0 114 3 106
-106 265 -95 140 -170 212 -248 240 -33 12 -69 25 -80 30 -45 19 -117 29 -255
35 -80 4 -155 8 -167 10 -13 2 -69 6 -125 10 -88 5 -109 3 -143 -13z m108 1
c-7 -2 -19 -2 -25 0 -7 3 -2 5 12 5 14 0 19 -2 13 -5z m17 -33 c-20 -13 -60
-13 -60 0 0 6 17 10 38 10 27 0 33 -3 22 -10z m-73 -6 c-3 -3 -12 -4 -19 -1
-8 3 -5 6 6 6 11 1 17 -2 13 -5z m93 -24 c0 -13 57 -13 65 0 8 14 126 1 146
-16 8 -8 25 -14 38 -14 29 0 83 -23 100 -43 11 -15 11 -17 -2 -17 -8 0 -17 -5
-19 -11 -2 -6 -22 -12 -45 -13 -22 -2 -45 -6 -51 -10 -6 -3 -18 -3 -28 1 -16
6 -15 7 2 20 18 13 17 14 -7 8 -16 -4 -30 -2 -34 5 -4 7 2 14 15 17 19 5 16 8
-21 21 -48 16 -161 11 -167 -7 -2 -6 -12 -11 -23 -11 -10 0 -41 -13 -67 -30
-27 -16 -52 -30 -56 -30 -3 0 -6 19 -6 43 0 44 22 76 60 90 26 10 100 7 100
-3z m638 -124 c12 -12 10 -14 -14 -13 -27 2 -43 12 -44 29 0 11 43 0 58 -16z
m-239 -12 c2 -2 -4 -4 -15 -4 -16 0 -17 -2 -4 -10 8 -5 27 -10 43 -10 15 0 27
-4 27 -10 0 -5 8 -10 19 -10 17 0 49 -27 40 -34 -2 -1 -15 -10 -27 -18 -24
-16 -24 -16 -3 -23 35 -11 24 -22 -26 -28 -40 -4 -52 -1 -81 21 l-33 25 28 14
28 13 -37 -3 c-21 -2 -38 0 -38 4 0 4 -16 13 -35 19 -40 13 -46 30 -12 30 21
1 21 1 3 15 -17 13 -14 14 25 17 42 4 89 0 98 -8z m313 -56 c21 -24 38 -50 37
-58 0 -10 -6 -6 -17 10 -9 13 -30 39 -46 57 -15 18 -24 33 -20 33 5 0 25 -19
46 -42z m88 -140 c0 -6 -7 -5 -15 2 -8 7 -15 17 -15 22 0 6 7 5 15 -2 8 -7 15
-17 15 -22z m-490 -18 c0 -5 -2 -10 -4 -10 -3 0 -8 5 -11 10 -3 6 -1 10 4 10
6 0 11 -4 11 -10z m-75 -11 c11 -17 -1 -21 -15 -4 -8 9 -8 15 -2 15 6 0 14 -5
17 -11z m-525 -55 c-18 -21 -24 -10 -8 15 7 12 14 17 16 11 2 -6 -2 -17 -8
-26z m765 5 c4 -6 17 -14 29 -19 15 -6 16 -9 5 -9 -9 -1 -27 8 -40 19 -13 10
-19 19 -12 20 6 0 15 -5 18 -11z m163 -35 c12 -8 22 -21 22 -27 0 -7 -7 -4
-14 6 -7 9 -18 17 -24 17 -6 0 -14 5 -17 10 -9 15 8 12 33 -6z m-58 -14 c11
-7 7 -10 -17 -10 -17 0 -35 5 -38 10 -8 13 35 13 55 0z m118 -25 c-3 -3 -9 2
-12 12 -6 14 -5 15 5 6 7 -7 10 -15 7 -18z m-978 5 c0 -5 -5 -10 -11 -10 -5 0
-7 5 -4 10 3 6 8 10 11 10 2 0 4 -4 4 -10z m982 -66 c18 -21 51 -107 37 -98
-5 3 -15 20 -23 37 -17 41 -70 95 -102 103 -26 7 -32 20 -11 27 12 4 67 -34
99 -69z m-1046 -1 c-11 -11 -19 6 -11 24 8 17 8 17 12 0 3 -10 2 -21 -1 -24z
m1249 -44 c4 -11 10 -17 14 -15 14 9 32 -83 21 -104 -6 -11 -13 -20 -15 -20
-12 0 -56 50 -65 74 -11 29 -14 79 -4 88 10 11 43 -4 49 -23z m39 11 c-22 -9
-29 -6 -20 9 4 6 14 7 23 4 15 -6 14 -7 -3 -13z m-125 -90 c-1 -22 -2 -22 -11
8 -6 17 -15 32 -19 32 -5 0 -9 8 -9 18 0 14 4 12 20 -8 11 -14 19 -36 19 -50z
m61 -60 c0 -31 -14 -31 -27 1 -18 44 -16 55 7 34 11 -10 20 -26 20 -35z m-26
-183 c4 -19 3 -26 -4 -22 -5 3 -10 18 -10 32 0 32 5 28 14 -10z m6 -201 c0 -3
-4 -8 -10 -11 -5 -3 -10 -1 -10 4 0 6 5 11 10 11 6 0 10 -2 10 -4z m-29 -129
c-10 -9 -11 -8 -5 6 3 10 9 15 12 12 3 -3 0 -11 -7 -18z m52 3 c-3 -12 -8 -19
-11 -16 -5 6 5 36 12 36 2 0 2 -9 -1 -20z m-623 -45 c0 -3 -9 -15 -19 -26 -22
-23 -40 -8 -19 15 13 15 38 22 38 11z m591 -66 c-6 -37 -9 -44 -10 -23 -1 37
11 104 16 88 2 -5 -1 -35 -6 -65z m-1081 -20 c0 -6 -4 -7 -10 -4 -5 3 -10 11
-10 16 0 6 5 7 10 4 6 -3 10 -11 10 -16z m1037 -37 c-7 -9 -17 -26 -21 -36 -3
-10 -9 -17 -12 -14 -3 3 5 27 18 53 15 30 24 41 26 30 2 -9 -3 -24 -11 -33z
m-617 8 c0 -5 -4 -10 -9 -10 -6 0 -13 5 -16 10 -3 6 1 10 9 10 9 0 16 -4 16
-10z m155 -11 c17 -12 38 -34 47 -49 9 -15 28 -30 44 -33 47 -10 57 -22 65
-82 4 -31 15 -72 23 -90 10 -20 14 -45 10 -64 -10 -48 -24 -37 -26 22 -1 50
-2 49 -8 -18 -4 -38 -7 -56 -8 -38 -2 38 -15 38 -82 -1 -25 -14 -54 -26 -65
-26 -16 0 -15 -3 9 -15 15 -8 32 -12 37 -9 5 3 1 -11 -8 -30 -21 -41 -38 -47
-31 -12 4 17 1 23 -9 19 -7 -3 -13 -9 -13 -14 0 -4 -16 -1 -35 7 -44 18 -51
18 -34 -2 8 -9 33 -25 57 -35 49 -21 82 -10 82 28 0 12 12 30 29 42 44 32 54
27 49 -24 -2 -25 0 -45 4 -45 5 0 8 -4 8 -8 0 -14 -69 -34 -91 -27 -15 5 -19
4 -15 -4 10 -16 -14 -13 -59 8 -48 23 -177 139 -172 155 2 6 -1 16 -7 22 -33
33 -91 108 -89 115 2 5 -2 8 -8 6 -16 -3 -19 45 -4 60 9 9 15 9 24 0 18 -18
13 4 -6 25 -19 21 -10 37 11 19 10 -8 16 -9 21 -1 3 5 21 10 38 11 28 1 29 2
9 8 -23 6 -23 7 -5 22 40 34 186 17 230 -27 23 -23 38 -16 17 8 -31 36 -38 42
-66 61 -29 18 -37 37 -16 37 6 0 26 -10 43 -21z m-230 -19 c8 -13 -13 -40 -31
-40 -17 0 -18 22 -2 38 15 15 25 15 33 2z m370 -20 c3 -5 1 -10 -4 -10 -6 0
-11 5 -11 10 0 6 2 10 4 10 3 0 8 -4 11 -10z m269 -47 c-4 -16 -11 -32 -15
-37 -5 -6 -9 -21 -9 -34 0 -13 -4 -20 -10 -17 -5 3 -10 24 -10 46 0 22 4 38 8
35 5 -3 15 4 22 15 19 26 22 24 14 -8z m57 -44 c-5 -13 -10 -19 -10 -12 -1 15
10 45 15 40 3 -2 0 -15 -5 -28z m-254 -81 c15 -24 31 -45 35 -48 14 -11 38
-93 33 -111 -3 -9 -18 -22 -33 -27 l-27 -9 3 47 c3 33 -2 59 -16 86 -21 41
-38 104 -28 104 3 0 18 -19 33 -42z m180 -10 c-3 -8 -6 -5 -6 6 -1 11 2 17 5
13 3 -3 4 -12 1 -19z m-581 -176 c-7 -7 -106 97 -106 112 1 6 26 -15 56 -48
30 -32 53 -61 50 -64z m-26 78 c0 -5 -2 -10 -4 -10 -3 0 -8 5 -11 10 -3 6 -1
10 4 10 6 0 11 -4 11 -10z m561 -43 c-8 -8 -11 -5 -11 9 0 27 14 41 18 19 2
-9 -1 -22 -7 -28z m447 -10 c9 -8 26 -17 37 -20 16 -4 15 -5 -6 -6 -15 0 -32
6 -39 14 -7 8 -21 15 -30 15 -24 0 -50 10 -50 20 0 12 69 -6 88 -23z m-1028
-7 c0 -5 -2 -10 -4 -10 -3 0 -8 5 -11 10 -3 6 -1 10 4 10 6 0 11 -4 11 -10z
m530 -45 c-30 -32 -38 -25 -9 9 12 14 25 24 27 21 3 -3 -5 -16 -18 -30z m199
-39 c-9 -8 -10 -5 -5 14 3 14 6 32 7 40 1 8 4 2 6 -14 3 -16 -1 -34 -8 -40z
m-1293 39 c-11 -8 -31 -15 -45 -15 -26 1 -26 1 4 15 42 19 66 19 41 0z m233
-50 l0 -20 -9 20 c-5 11 -9 27 -9 35 -1 13 0 13 9 0 5 -8 9 -24 9 -35z m72
-50 c7 -21 6 -26 -1 -19 -6 6 -13 28 -15 50 -2 21 -2 30 1 19 3 -11 10 -33 15
-50z m369 39 c0 -2 -9 0 -20 6 -11 6 -20 13 -20 16 0 2 9 0 20 -6 11 -6 20
-13 20 -16z m355 -4 c-3 -5 -11 -10 -16 -10 -6 0 -7 5 -4 10 3 6 11 10 16 10
6 0 7 -4 4 -10z m267 -22 c-9 -9 -12 -7 -12 12 0 19 3 21 12 12 9 -9 9 -15 0
-24z m543 12 c3 -5 17 -10 29 -10 13 0 30 -7 37 -17 13 -15 12 -15 -8 -5 -12
7 -30 12 -41 12 -11 0 -25 7 -32 15 -8 9 -9 15 -2 15 6 0 14 -4 17 -10z
m-1985 -10 c0 -5 -12 -10 -27 -10 -22 0 -25 2 -13 10 20 13 40 13 40 0z m441
-48 c16 -18 29 -40 29 -50 0 -9 7 -26 15 -36 8 -11 15 -27 15 -35 0 -27 -15
-5 -89 130 -11 20 -17 40 -13 43 3 4 8 1 11 -6 2 -7 17 -28 32 -46z m689 38
c0 -5 -4 -10 -10 -10 -5 0 -10 5 -10 10 0 6 5 10 10 10 6 0 10 -4 10 -10z
m985 -30 c3 -5 2 -10 -4 -10 -5 0 -13 5 -16 10 -3 6 -2 10 4 10 5 0 13 -4 16
-10z m-1118 -16 c-3 -3 -12 -4 -19 -1 -8 3 -5 6 6 6 11 1 17 -2 13 -5z m-1122
-25 c-4 -5 -25 -9 -48 -8 l-42 1 33 8 c18 4 36 10 39 14 9 8 24 -4 18 -15z
m529 5 c3 -8 2 -12 -4 -9 -6 3 -10 10 -10 16 0 14 7 11 14 -7z m1840 -21 c20
-15 20 -15 1 -9 -11 4 -32 10 -47 13 -16 3 -28 10 -28 15 0 13 48 1 74 -19z
m-1765 -103 c11 -9 32 -62 27 -68 -8 -7 -45 40 -46 58 0 8 -9 26 -20 40 -11
14 -20 36 -20 50 0 20 5 15 26 -25 15 -28 30 -52 33 -55z m-829 46 c0 -2 -13
-9 -30 -15 -16 -5 -30 -6 -30 -1 0 5 8 11 18 13 24 7 42 8 42 3z m-100 -46
c-8 -5 -24 -10 -35 -10 -17 0 -17 2 -5 10 8 5 24 10 35 10 17 0 17 -2 5 -10z
m-74 -29 c-8 -12 -46 -21 -46 -11 0 5 8 11 18 13 29 8 33 7 28 -2z m-98 -47
c-9 -9 -22 -14 -30 -11 -8 3 -4 8 12 15 35 15 37 14 18 -4z m1157 6 c3 -5 1
-10 -4 -10 -6 0 -11 5 -11 10 0 6 2 10 4 10 3 0 8 -4 11 -10z m2053 4 c12 -4
22 -13 22 -21 0 -8 -4 -12 -10 -8 -5 3 -3 -7 5 -22 8 -15 15 -35 15 -43 -1
-22 -70 59 -70 82 0 20 4 21 38 12z m222 -729 c0 -17 -2 -17 -10 -5 -5 8 -10
24 -10 35 0 17 2 17 10 5 5 -8 10 -24 10 -35z"/>
<path d="M2171 2326 c2 -2 20 -6 39 -10 25 -4 31 -3 20 4 -14 9 -69 15 -59 6z"/>
<path d="M2109 2237 c7 -10 18 -17 24 -17 6 0 18 -7 28 -16 12 -11 41 -17 90
-19 45 -2 67 0 58 6 -8 5 -23 9 -34 9 -11 0 -27 5 -35 11 -11 8 1 9 45 6 62
-4 85 -1 85 13 0 4 -52 6 -116 4 -74 -2 -124 1 -138 8 -19 10 -20 10 -7 -5z"/>
<path d="M2375 3390 c3 -5 10 -10 16 -10 5 0 9 5 9 10 0 6 -7 10 -16 10 -8 0
-12 -4 -9 -10z"/>
<path d="M1970 3209 c0 -6 -8 -8 -18 -4 -19 5 -78 -32 -68 -43 3 -2 11 0 18 6
13 11 18 12 42 12 8 0 24 9 37 20 20 16 21 19 7 20 -10 0 -18 -5 -18 -11z"/>
<path d="M1820 3135 c-14 -16 -3 -20 19 -6 8 5 9 11 3 15 -5 3 -15 -1 -22 -9z"/>
<path d="M2603 3143 c9 -2 23 -2 30 0 6 3 -1 5 -18 5 -16 0 -22 -2 -12 -5z"/>
<path d="M2415 3039 c-22 -4 -54 -6 -72 -4 -18 2 -35 0 -38 -5 -4 -6 -16 -10
-28 -10 -12 0 -33 -10 -47 -23 -51 -47 -62 -49 -98 -14 -25 25 -35 29 -41 18
-6 -9 -11 -10 -15 -2 -4 6 -2 11 3 11 6 0 11 4 11 8 0 11 -71 10 -87 -1 -7 -5
-18 -5 -25 -1 -14 9 -86 6 -102 -4 -6 -3 -19 -7 -28 -7 -10 -1 -27 -10 -37
-20 -11 -9 -27 -15 -34 -12 -12 4 -12 -1 0 -35 16 -48 11 -58 -19 -32 -16 14
-15 10 6 -18 16 -21 33 -38 38 -38 5 0 8 -6 5 -12 -13 -37 74 -117 139 -129
39 -7 52 -5 92 15 26 14 56 36 66 51 11 14 28 36 38 47 10 11 20 35 24 53 3
18 16 44 27 56 22 24 22 24 25 2 2 -11 12 -29 23 -39 10 -9 19 -23 19 -31 0
-22 77 -86 133 -111 34 -15 101 -16 92 -2 -3 6 -17 10 -31 10 -13 0 -24 3 -24
8 0 4 28 7 62 8 38 0 63 5 66 12 2 7 8 9 13 6 12 -7 59 22 59 36 0 5 -7 7 -15
4 -12 -5 -13 -2 -6 17 11 32 36 31 35 0 l-1 -25 23 29 c34 42 16 63 -50 59
-106 -6 -187 -7 -193 0 -3 3 0 6 7 6 7 0 1 10 -13 23 l-26 22 51 3 c28 2 60 7
69 13 29 15 56 11 111 -17 59 -30 85 -36 93 -23 4 5 -2 9 -12 9 -11 0 -37 16
-58 36 -54 49 -68 55 -113 48 -22 -3 -48 -2 -58 3 -11 5 -37 6 -59 2z m75 -29
c0 -5 -11 -10 -25 -10 -14 0 -25 5 -25 10 0 6 11 10 25 10 14 0 25 -4 25 -10z
m-515 -86 c33 -22 31 -30 -7 -39 -50 -12 -82 -13 -95 -2 -7 5 -19 7 -27 4 -14
-6 -36 10 -36 26 0 5 10 7 23 4 12 -3 31 1 41 9 26 19 71 18 101 -2z m487 -73
l17 -34 21 37 c12 20 26 36 30 36 5 0 16 3 25 6 28 11 16 -58 -12 -71 -13 -5
-23 -13 -23 -17 0 -16 -33 -7 -64 17 -72 58 -84 78 -38 66 17 -4 33 -20 44
-40z m-625 12 c10 -16 29 -38 43 -50 14 -12 20 -23 14 -23 -6 0 -27 18 -48 40
-20 22 -41 40 -46 40 -6 0 -10 5 -10 10 0 20 30 9 47 -17z m223 -12 c0 -54
-102 -75 -154 -32 -20 17 -20 27 1 35 9 4 25 -2 38 -14 24 -22 65 -27 65 -7 0
17 20 37 37 37 7 0 13 -9 13 -19z m31 -44 c-10 -9 -11 -8 -5 6 3 10 9 15 12
12 3 -3 0 -11 -7 -18z m-192 -55 c9 -9 33 -13 68 -10 52 3 69 -4 37 -16 -41
-16 -81 -6 -120 30 -21 20 -30 30 -19 23 11 -8 26 -20 34 -27z m176 19 c-3 -6
-18 -11 -33 -11 l-27 1 30 13 c32 14 41 13 30 -3z"/>
<path d="M1740 3011 c0 -6 4 -13 10 -16 6 -3 7 1 4 9 -7 18 -14 21 -14 7z"/>
<path d="M2972 2785 c0 -16 2 -22 5 -12 2 9 2 23 0 30 -3 6 -5 -1 -5 -18z"/>
<path d="M2938 2715 c-6 -30 -3 -43 8 -33 3 4 4 19 2 35 l-3 28 -7 -30z"/>
<path d="M2758 2708 c-9 -7 -22 -26 -28 -43 l-11 -30 32 31 c33 33 39 66 7 42z"/>
<path d="M2080 2619 c-13 -28 -32 -55 -42 -60 -10 -5 -18 -14 -18 -20 0 -33
80 58 95 109 12 41 -11 22 -35 -29z"/>
<path d="M2364 2651 c11 -13 15 -27 11 -40 -3 -12 -2 -21 3 -21 19 0 19 39 0
59 -10 12 -22 21 -25 21 -3 0 2 -9 11 -19z"/>
<path d="M2740 2475 c-7 -9 -8 -15 -2 -15 5 0 12 7 16 15 3 8 4 15 2 15 -2 0
-9 -7 -16 -15z"/>
<path d="M3126 1978 c11 -19 57 -81 71 -95 6 -7 24 -18 39 -23 l28 -11 -19 23
c-54 62 -109 118 -117 118 -5 0 -6 -6 -2 -12z"/>
<path d="M3180 1971 c0 -5 7 -12 16 -15 14 -5 15 -4 4 9 -14 17 -20 19 -20 6z"/>
<path d="M1620 1895 c7 -9 15 -13 17 -11 7 7 -7 26 -19 26 -6 0 -6 -6 2 -15z"/>
<path d="M1685 1820 c27 -27 50 -48 52 -46 5 4 -84 96 -93 96 -5 0 14 -22 41
-50z"/>
<path d="M3490 1802 c0 -5 11 -15 25 -22 14 -7 25 -17 25 -22 0 -4 4 -8 10 -8
5 0 7 6 4 13 -6 16 -64 52 -64 39z"/>
<path d="M2315 1758 c-11 -6 -51 -45 -88 -87 -64 -71 -67 -76 -45 -81 15 -4
19 -8 10 -14 -6 -4 -12 -11 -12 -17 0 -18 27 -8 55 21 16 16 31 28 33 25 2 -2
-3 -11 -12 -20 -18 -18 -13 -35 11 -35 8 0 13 -6 10 -13 -3 -7 1 -21 9 -32 14
-18 14 -18 29 1 16 21 16 21 20 -21 3 -41 4 -42 15 -25 8 12 11 12 27 -1 28
-23 66 -39 88 -36 13 1 20 -4 20 -15 0 -9 10 -29 23 -45 12 -15 22 -33 22 -40
0 -6 4 -15 10 -18 12 -8 -4 38 -24 67 -8 11 -12 26 -10 33 3 7 -3 16 -13 19
-17 7 -17 8 1 22 15 11 16 14 4 14 -27 0 -78 31 -100 61 -12 16 -30 31 -40 35
-10 3 -16 9 -13 14 7 11 -15 25 -40 25 -11 0 -21 8 -23 18 -2 12 3 17 17 17
11 0 24 7 29 17 10 18 8 19 78 -41 54 -47 143 -86 114 -51 -7 9 -19 14 -25 11
-7 -2 -35 16 -63 40 -28 24 -55 44 -61 44 -6 0 -11 7 -11 15 0 23 30 18 50 -8
10 -12 38 -32 62 -44 24 -12 59 -40 78 -63 42 -50 52 -44 14 9 -29 40 -41 48
-101 71 -18 7 -35 20 -38 30 -3 10 -19 23 -35 29 -37 12 -37 16 -2 47 29 28
28 28 -48 5 -32 -9 -33 -9 -16 4 24 18 18 26 -9 13z m16 -59 c9 -18 7 -25 -9
-41 -11 -11 -25 -17 -31 -14 -18 12 -12 24 17 34 26 10 27 11 5 17 -13 4 -20
11 -17 16 9 15 23 10 35 -12z m-3 -141 c-6 -18 -28 -21 -28 -4 0 9 7 16 16 16
9 0 14 -5 12 -12z m59 -47 c3 -11 22 -28 44 -38 28 -13 36 -22 30 -32 -7 -11
-14 -10 -40 5 -17 10 -31 22 -31 26 0 4 -6 8 -14 8 -16 0 -29 27 -20 41 9 15
26 10 31 -10z"/>
<path d="M3070 1713 c-36 -18 -66 -37 -68 -43 -5 -14 -3 -13 65 19 55 27 82
48 72 55 -2 1 -33 -12 -69 -31z"/>
<path d="M2430 1729 c0 -6 -9 -8 -20 -4 -15 5 -18 3 -14 -8 6 -17 94 -82 110
-82 7 0 28 -20 49 -45 39 -47 64 -69 79 -70 10 0 -67 94 -138 168 -50 52 -66
62 -66 41z m46 -46 c-8 -8 -36 5 -36 17 0 7 6 7 21 0 11 -7 18 -14 15 -17z"/>
<path d="M1780 1689 c1 -15 23 -49 34 -49 12 0 6 17 -14 40 -13 15 -20 18 -20
9z"/>
<path d="M2819 1630 c-6 -16 -15 -30 -20 -30 -5 0 -9 -14 -9 -32 l0 -32 19 37
c18 35 32 87 24 87 -2 0 -9 -13 -14 -30z"/>
<path d="M1520 1641 c0 -17 51 -50 86 -57 19 -3 31 -10 28 -15 -3 -5 13 -9 35
-9 23 0 41 4 41 10 0 12 -34 30 -58 30 -11 0 -25 7 -32 15 -7 9 -15 13 -18 11
-2 -3 -20 1 -39 9 -42 18 -43 18 -43 6z"/>
<path d="M2703 1595 c0 -22 2 -30 4 -17 2 12 2 30 0 40 -3 9 -5 -1 -4 -23z"/>
<path d="M2350 1603 c13 -10 40 -34 61 -53 66 -61 69 -63 69 -45 0 8 -11 19
-23 24 -13 5 -35 22 -48 38 -24 27 -61 53 -76 53 -4 0 4 -8 17 -17z"/>
<path d="M2006 1575 c4 -8 10 -15 15 -15 4 0 6 7 3 15 -4 8 -10 15 -15 15 -4
0 -6 -7 -3 -15z"/>
<path d="M2820 1562 c0 -28 98 -104 124 -96 38 11 44 27 8 20 -28 -5 -40 -1
-73 27 -21 17 -39 37 -39 44 0 6 -4 15 -10 18 -5 3 -10 -2 -10 -13z"/>
<path d="M628 1536 c-10 -7 -18 -20 -18 -29 0 -9 -4 -19 -10 -22 -5 -3 -10
-12 -9 -18 0 -9 2 -9 6 1 10 26 23 10 24 -30 0 -34 2 -39 9 -23 5 11 6 40 3
65 -3 25 -2 42 2 38 9 -9 35 9 35 23 0 13 -22 10 -42 -5z"/>
<path d="M751 1524 c0 -11 3 -14 6 -6 3 7 2 16 -1 19 -3 4 -6 -2 -5 -13z"/>
<path d="M2916 1525 c4 -8 11 -15 16 -15 6 0 5 6 -2 15 -7 8 -14 15 -16 15 -2
0 -1 -7 2 -15z"/>
<path d="M2653 1490 c21 -43 49 -80 59 -80 13 0 33 -21 57 -61 13 -21 21 -28
21 -17 0 27 -32 88 -47 88 -7 0 -12 8 -11 18 2 33 -2 52 -13 52 -7 0 -8 -12
-4 -32 l7 -33 -41 45 c-26 28 -36 36 -28 20z"/>
<path d="M770 1493 c0 -5 5 -15 10 -23 8 -12 10 -11 10 8 0 12 -4 22 -10 22
-5 0 -10 -3 -10 -7z"/>
<path d="M3000 1465 c7 -8 17 -15 22 -15 6 0 5 7 -2 15 -7 8 -17 15 -22 15 -6
0 -5 -7 2 -15z"/>
<path d="M3900 1470 c0 -5 5 -10 10 -10 6 0 10 5 10 10 0 6 -4 10 -10 10 -5 0
-10 -4 -10 -10z"/>
<path d="M2052 1450 c0 -14 2 -19 5 -12 2 6 2 18 0 25 -3 6 -5 1 -5 -13z"/>
<path d="M3453 1455 c-3 -9 -3 -18 -1 -21 3 -3 8 4 11 16 6 23 -1 27 -10 5z"/>
<path d="M1520 1438 c0 -4 9 -22 20 -40 12 -20 20 -26 20 -17 0 16 -39 72 -40
57z"/>
<path d="M2370 1422 c0 -5 11 -14 25 -20 29 -13 33 -5 8 14 -21 15 -33 18 -33
6z"/>
<path d="M4011 1404 c0 -11 3 -14 6 -6 3 7 2 16 -1 19 -3 4 -6 -2 -5 -13z"/>
<path d="M2350 1397 c0 -8 7 -17 15 -21 18 -6 9 -36 -11 -36 -16 0 -51 -52
-61 -90 -3 -14 -12 -31 -20 -38 -15 -16 -18 -46 -3 -37 6 3 10 -3 10 -14 0
-41 19 -20 26 27 7 55 32 112 54 123 8 4 29 12 45 19 19 8 25 14 16 18 -7 2
-18 -2 -23 -9 -7 -10 -8 -9 -4 6 6 22 1 32 -26 54 -16 11 -18 11 -18 -2z"/>
<path d="M3421 1395 c-2 -5 -4 -19 -6 -29 -2 -10 -7 -22 -12 -25 -33 -24 -120
-179 -123 -218 0 -1 7 0 15 3 8 4 15 13 15 22 0 12 3 13 11 5 9 -9 8 -16 -4
-27 -9 -9 -19 -16 -24 -16 -16 0 -40 -56 -33 -75 9 -24 -3 -58 -30 -87 -16
-18 -20 -34 -19 -87 l2 -66 9 70 c8 61 14 74 44 102 19 18 34 39 34 45 0 10
-2 10 -9 0 -11 -18 -22 37 -11 57 6 11 10 10 18 -6 6 -11 8 -24 4 -28 -4 -5 2
-5 13 -1 82 31 66 33 180 -21 l30 -14 -25 20 c-14 12 -39 26 -57 33 -28 10
-32 15 -26 36 4 16 2 23 -4 19 -15 -9 -25 20 -14 41 5 9 15 37 22 62 7 25 19
56 26 70 28 55 1 64 -31 10 -16 -29 -36 -40 -36 -21 0 4 11 25 26 46 16 24 24
47 21 64 -2 14 -5 22 -6 16z m-45 -189 c-9 -38 -12 -42 -22 -28 -10 14 -9 22
4 44 24 40 30 34 18 -16z m-26 -47 c0 -5 -4 -9 -10 -9 -5 0 -10 7 -10 16 0 8
5 12 10 9 6 -3 10 -10 10 -16z m-10 -68 c0 -5 8 -7 19 -4 10 3 22 0 25 -6 4
-7 -1 -11 -13 -11 -11 0 -23 -4 -26 -10 -10 -17 -35 -11 -35 8 0 10 3 22 7 25
9 10 23 9 23 -2z"/>
<path d="M2091 1364 c0 -11 3 -14 6 -6 3 7 2 16 -1 19 -3 4 -6 -2 -5 -13z"/>
<path d="M4044 1346 c6 -19 12 -33 14 -31 7 6 -9 65 -17 65 -5 0 -3 -15 3 -34z"/>
<path d="M2697 1356 c-4 -9 -13 -73 -22 -143 -9 -70 -20 -150 -25 -176 -14
-70 -11 -90 6 -37 7 25 14 62 14 82 0 21 4 57 10 80 5 24 14 79 20 122 10 76
9 103 -3 72z"/>
<path d="M1576 1330 c3 -14 11 -32 16 -40 6 -10 7 -7 2 10 -3 14 -11 32 -16
40 -6 10 -7 7 -2 -10z"/>
<path d="M2498 1308 c9 -18 24 -42 34 -53 10 -11 21 -31 24 -45 2 -14 9 -39
14 -56 6 -17 10 -46 10 -65 0 -19 5 -41 10 -49 7 -11 10 -1 10 34 0 52 -48
209 -61 200 -4 -2 -15 11 -25 31 -9 19 -20 35 -24 35 -5 0 -1 -15 8 -32z"/>
<path d="M2732 1320 c0 -14 2 -19 5 -12 2 6 2 18 0 25 -3 6 -5 1 -5 -13z"/>
<path d="M2350 1275 c-13 -14 -20 -28 -17 -32 7 -7 47 34 47 49 0 13 -5 10
-30 -17z"/>
<path d="M4012 1260 c0 -19 2 -27 5 -17 2 9 2 25 0 35 -3 9 -5 1 -5 -18z"/>
<path d="M2376 1244 c-4 -9 -4 -19 -1 -22 2 -3 7 3 11 12 4 9 4 19 1 22 -2 3
-7 -3 -11 -12z"/>
<path d="M2509 1224 c8 -19 19 -34 24 -34 5 0 6 6 3 13 -3 6 -9 20 -12 29 -3
9 -12 19 -18 21 -9 4 -8 -5 3 -29z"/>
<path d="M2041 1240 c-1 -3 6 -25 13 -50 11 -32 15 -38 15 -20 0 20 -28 89
-28 70z"/>
<path d="M730 1221 c0 -5 7 -15 17 -22 15 -13 15 -12 4 9 -12 23 -21 28 -21
13z"/>
<path d="M1620 1214 c0 -6 7 -19 15 -30 8 -10 14 -14 14 -9 0 6 -6 19 -14 29
-8 11 -15 15 -15 10z"/>
<path d="M2332 1195 c0 -16 2 -22 5 -12 2 9 2 23 0 30 -3 6 -5 -1 -5 -18z"/>
<path d="M3871 1204 c0 -11 3 -14 6 -6 3 7 2 16 -1 19 -3 4 -6 -2 -5 -13z"/>
<path d="M3991 1204 c0 -11 3 -14 6 -6 3 7 2 16 -1 19 -3 4 -6 -2 -5 -13z"/>
<path d="M4063 1170 c0 -30 2 -43 4 -27 2 15 2 39 0 55 -2 15 -4 2 -4 -28z"/>
<path d="M571 1184 c0 -11 3 -14 6 -6 3 7 2 16 -1 19 -3 4 -6 -2 -5 -13z"/>
<path d="M491 1180 c-2 -8 -4 -24 -7 -35 -16 -85 -16 -124 1 -147 14 -19 16
-19 10 -3 -14 36 -18 85 -6 85 6 0 11 -8 11 -17 0 -10 9 -29 20 -43 11 -14 20
-32 20 -41 0 -9 7 -22 15 -29 8 -7 15 -25 15 -41 0 -16 5 -29 10 -29 10 0 6
37 -10 75 -4 11 -13 33 -19 48 -13 34 -14 50 -2 42 13 -8 -21 78 -36 90 -6 6
-14 21 -16 35 -2 14 -5 18 -6 10z"/>
<path d="M868 1165 c2 -14 8 -25 12 -25 4 0 10 -22 14 -49 3 -27 13 -54 21
-61 8 -7 15 -22 15 -34 0 -31 28 -125 29 -98 1 29 -17 108 -34 147 -7 17 -16
41 -20 55 -8 29 -34 90 -39 90 -2 0 -1 -11 2 -25z"/>
<path d="M3856 1165 c-3 -9 -6 -26 -5 -38 1 -14 4 -9 9 13 9 37 7 52 -4 25z"/>
<path d="M4091 1153 c-1 -17 4 -35 9 -38 11 -7 11 9 0 45 -8 24 -8 24 -9 -7z"/>
<path d="M531 1160 c0 -8 6 -24 14 -34 19 -25 19 -9 0 24 -8 14 -14 19 -14 10z"/>
<path d="M1650 1159 c0 -4 7 -22 15 -40 8 -19 14 -27 14 -19 0 14 -28 72 -29
59z"/>
<path d="M2695 1116 c-10 -65 -1 -77 11 -17 6 29 7 54 3 57 -4 2 -11 -16 -14
-40z"/>
<path d="M730 1145 c0 -18 19 -40 26 -32 4 4 0 15 -9 24 -9 10 -17 13 -17 8z"/>
<path d="M2255 1137 c-4 -10 -5 -21 -1 -24 10 -10 18 4 13 24 -4 17 -4 17 -12
0z"/>
<path d="M2065 1132 c4 -8 11 -26 15 -40 7 -22 8 -23 9 -6 1 11 -6 29 -15 40
-8 10 -12 13 -9 6z"/>
<path d="M2556 1117 c3 -10 9 -15 12 -12 3 3 0 11 -7 18 -10 9 -11 8 -5 -6z"/>
<path d="M573 1090 c4 -14 7 -29 7 -34 0 -4 6 -6 14 -3 9 4 18 -3 23 -18 8
-24 77 -85 96 -85 6 0 -8 19 -31 43 -22 23 -57 60 -78 82 -33 35 -36 37 -31
15z"/>
<path d="M2010 1085 c0 -11 5 -27 10 -35 8 -12 10 -12 10 5 0 11 -5 27 -10 35
-8 12 -10 12 -10 -5z"/>
<path d="M2256 1081 c-10 -11 -16 -26 -14 -33 3 -8 12 0 22 20 19 37 17 40 -8
13z"/>
<path d="M770 1068 c0 -9 5 -20 11 -23 17 -11 20 0 4 21 -13 17 -14 17 -15 2z"/>
<path d="M3819 1020 c-3 -36 -5 -67 -3 -69 11 -12 15 13 12 70 l-3 64 -6 -65z"/>
<path d="M1693 1049 c8 -33 58 -141 63 -137 4 5 -54 149 -63 158 -3 3 -3 -7 0
-21z"/>
<path d="M2096 1010 c3 -30 10 -62 15 -70 6 -9 7 3 3 35 -10 72 -26 103 -18
35z"/>
<path d="M2272 1038 c-7 -7 -12 -18 -12 -25 0 -7 -7 -10 -15 -7 -10 4 -16 -3
-20 -23 -4 -15 -13 -46 -20 -68 -8 -22 -17 -57 -21 -77 -3 -21 -10 -38 -14
-38 -8 0 -22 38 -35 94 -3 15 -9 26 -12 22 -8 -7 17 -95 35 -124 13 -20 16
-21 27 -6 6 10 17 14 23 10 6 -3 13 -2 16 3 3 5 -1 11 -9 15 -19 7 -9 33 16
41 10 4 19 10 19 15 0 5 -7 7 -17 3 -13 -5 -15 -2 -9 18 4 13 7 31 7 39 0 30
10 61 18 56 4 -3 15 10 24 29 18 38 18 42 -1 23z"/>
<path d="M3378 1034 c-5 -4 -8 -20 -8 -35 0 -36 -10 -60 -21 -53 -5 3 -9 -5
-9 -17 0 -12 -8 -43 -17 -70 -16 -45 -16 -49 0 -67 9 -10 17 -26 17 -34 0 -9
8 -25 18 -35 14 -16 27 -19 75 -15 40 3 57 8 57 18 0 10 -10 12 -44 8 -39 -6
-44 -4 -49 17 -4 13 -2 26 3 27 6 2 10 21 10 43 0 34 4 40 33 52 39 17 63 42
47 52 -5 3 -10 1 -10 -4 0 -6 -7 -11 -15 -11 -8 0 -15 -5 -15 -11 0 -8 -4 -8
-14 0 -11 9 -18 6 -35 -15 -25 -32 -35 -82 -26 -130 5 -27 3 -34 -6 -29 -14 9
-6 162 11 212 12 33 10 110 -2 97z"/>
<path d="M810 1018 c0 -9 5 -20 10 -23 13 -8 13 5 0 25 -8 13 -10 13 -10 -2z"/>
<path d="M2591 994 c0 -11 3 -14 6 -6 3 7 2 16 -1 19 -3 4 -6 -2 -5 -13z"/>
<path d="M2711 995 c-1 -11 -4 -31 -7 -45 -5 -22 -4 -23 6 -7 6 10 9 30 7 45
-3 18 -5 20 -6 7z"/>
<path d="M3530 993 c0 -7 4 -13 8 -13 5 0 14 -10 20 -22 6 -13 11 -18 11 -12
1 7 -8 22 -19 35 -10 13 -19 18 -20 12z"/>
<path d="M2047 955 c3 -22 7 -42 9 -44 8 -9 2 45 -6 64 -7 14 -8 8 -3 -20z"/>
<path d="M2252 950 c0 -14 2 -19 5 -12 2 6 2 18 0 25 -3 6 -5 1 -5 -13z"/>
<path d="M2561 954 c0 -11 3 -14 6 -6 3 7 2 16 -1 19 -3 4 -6 -2 -5 -13z"/>
<path d="M3181 939 c-6 -19 -8 -48 -3 -73 7 -39 7 -38 12 29 4 39 5 71 4 73
-1 2 -7 -11 -13 -29z"/>
<path d="M450 933 c0 -13 9 -37 20 -55 11 -18 20 -39 20 -47 0 -31 66 -143
112 -194 27 -28 47 -44 44 -35 -4 14 9 10 63 -17 38 -19 81 -35 97 -35 19 0
25 -3 16 -8 -9 -6 0 -13 28 -21 22 -6 40 -16 40 -21 0 -5 18 -14 40 -20 22 -6
40 -15 40 -20 0 -6 11 -10 25 -10 19 0 25 -5 26 -22 1 -18 2 -19 6 -5 9 34 23
5 23 -47 0 -59 -8 -66 -90 -82 -46 -8 -74 -24 -64 -34 18 -16 63 -20 76 -7 40
39 72 24 108 -53 12 -25 19 -34 15 -20 -3 14 -10 40 -15 58 -9 37 2 42 24 10
12 -17 16 -18 16 -6 0 8 -7 21 -15 28 -8 7 -15 20 -15 30 0 10 -7 23 -15 30
-9 8 -15 30 -15 60 0 43 -3 49 -42 81 -24 19 -48 33 -55 31 -6 -1 -26 11 -44
28 -19 16 -40 30 -49 30 -9 0 -26 7 -38 16 -13 9 -26 13 -29 10 -3 -3 -18 0
-32 8 -14 7 -42 21 -62 30 -40 20 -199 187 -199 210 0 16 -21 68 -31 76 -3 3
-11 14 -17 25 -11 19 -11 19 -12 -2z m163 -260 c7 -9 5 -13 -7 -13 -11 0 -16
8 -15 28 0 15 3 21 6 12 3 -8 10 -21 16 -27z m382 -203 c3 -5 1 -10 -4 -10 -6
0 -11 5 -11 10 0 6 2 10 4 10 3 0 8 -4 11 -10z"/>
<path d="M2590 916 c0 -9 5 -16 10 -16 6 0 10 4 10 9 0 6 -4 13 -10 16 -5 3
-10 -1 -10 -9z"/>
<path d="M3806 904 c-10 -14 -16 -28 -13 -30 2 -3 12 7 21 22 10 14 16 28 13
30 -2 3 -12 -7 -21 -22z"/>
<path d="M2017 899 c4 -13 8 -18 11 -10 2 7 -1 18 -6 23 -8 8 -9 4 -5 -13z"/>
<path d="M3302 891 c-6 -17 -7 -31 -3 -31 8 0 22 52 16 58 -1 2 -7 -11 -13
-27z"/>
<path d="M2562 885 c0 -16 2 -22 5 -12 2 9 2 23 0 30 -3 6 -5 -1 -5 -18z"/>
<path d="M2632 870 c0 -19 2 -27 5 -17 2 9 2 25 0 35 -3 9 -5 1 -5 -18z"/>
<path d="M3262 880 c0 -14 2 -19 5 -12 2 6 2 18 0 25 -3 6 -5 1 -5 -13z"/>
<path d="M436 822 c-4 -35 -2 -71 5 -90 9 -25 9 -47 -1 -90 -12 -56 -11 -58
22 -109 18 -29 38 -53 45 -53 6 0 13 -4 15 -8 8 -19 103 -82 124 -82 13 0 24
-4 24 -9 0 -15 39 -20 50 -5 9 10 5 16 -22 27 -18 8 -78 61 -134 119 -112 116
-104 96 -107 286 -1 39 -5 72 -8 72 -4 0 -9 -26 -13 -58z m169 -362 c3 -5 1
-10 -4 -10 -6 0 -11 5 -11 10 0 6 2 10 4 10 3 0 8 -4 11 -10z m45 -42 c0 -6
-6 -5 -15 2 -8 7 -15 14 -15 16 0 2 7 1 15 -2 8 -4 15 -11 15 -16z"/>
<path d="M1776 860 c3 -14 10 -29 15 -34 14 -16 10 6 -7 34 l-15 25 7 -25z"/>
<path d="M2050 851 c0 -19 8 -44 18 -55 16 -20 16 -20 -1 -7 -30 24 -31 3 -1
-26 33 -32 59 -63 52 -63 -2 0 -19 13 -38 30 -18 16 -36 28 -38 25 -8 -8 62
-67 91 -78 17 -5 26 -15 23 -22 -3 -9 11 -19 40 -29 24 -8 42 -11 39 -5 -4 5
-13 9 -21 9 -8 0 -14 4 -14 9 0 5 -19 28 -42 51 -31 32 -36 40 -18 30 14 -7
33 -19 43 -28 9 -8 17 -12 17 -8 0 4 10 2 23 -4 20 -9 20 -9 3 2 -26 17 -95
82 -77 72 9 -4 12 -2 9 7 -3 8 -15 13 -27 12 -17 -2 -26 7 -41 40 -31 69 -40
77 -40 38z"/>
<path d="M975 800 c10 -106 10 -109 20 -117 4 -5 5 15 1 42 -4 28 -9 70 -11
94 -2 23 -7 46 -11 50 -3 3 -3 -28 1 -69z"/>
<path d="M2581 853 c0 -5 4 -17 9 -28 8 -18 9 -17 9 8 1 15 -3 27 -9 27 -5 0
-10 -3 -9 -7z"/>
<path d="M651 824 c13 -14 40 -27 61 -30 22 -4 35 -11 31 -17 -3 -6 -1 -7 5
-3 6 4 22 1 34 -6 13 -6 32 -13 43 -15 10 -2 22 -7 25 -11 3 -4 31 -24 63 -46
38 -26 59 -47 63 -65 9 -42 12 -47 13 -23 2 42 21 12 21 -33 0 -24 5 -47 10
-50 6 -4 10 6 10 22 0 39 -19 103 -30 103 -5 0 -35 27 -67 60 -31 33 -63 58
-69 56 -7 -3 -24 4 -37 15 -14 10 -31 19 -39 19 -8 0 -23 7 -34 15 -24 18 -38
19 -27 3 4 -8 -3 -7 -17 3 -14 9 -38 18 -53 21 l-28 5 22 -23z"/>
<path d="M1982 830 c0 -14 2 -19 5 -12 2 6 2 18 0 25 -3 6 -5 1 -5 -13z"/>
<path d="M3791 843 c1 -5 0 -10 -1 -13 -1 -3 -4 -25 -5 -50 -5 -111 -18 -224
-25 -206 -4 13 -9 16 -14 8 -4 -6 2 -20 13 -31 17 -17 19 -26 11 -46 -6 -15
-14 -23 -20 -20 -6 4 -10 -11 -10 -37 0 -32 5 -46 20 -55 13 -9 21 -9 26 -2 3
6 17 8 30 5 32 -8 30 -2 -11 39 -31 31 -33 38 -23 60 6 14 17 25 25 25 7 0 17
8 20 18 10 26 24 32 68 27 l40 -5 -35 14 c-29 11 -39 11 -62 0 -14 -8 -29 -19
-31 -26 -12 -29 -28 18 -23 67 3 28 8 86 12 130 3 44 10 82 15 83 15 6 10 22
-6 22 -8 0 -14 -3 -14 -7z m-3 -428 c-3 -3 -9 2 -12 12 -6 14 -5 15 5 6 7 -7
10 -15 7 -18z"/>
<path d="M2236 831 c-4 -7 -5 -15 -2 -18 9 -9 19 4 14 18 -4 11 -6 11 -12 0z"/>
<path d="M3530 833 c-8 -3 -26 -17 -40 -30 l-25 -24 28 10 c17 7 27 7 27 1 0
-19 18 -10 24 13 7 21 7 21 16 2 10 -23 13 -5 4 19 -6 17 -10 18 -34 9z"/>
<path d="M2001 813 c-1 -30 20 -82 26 -65 3 8 1 24 -5 35 -6 12 -13 29 -15 37
-4 10 -6 7 -6 -7z"/>
<path d="M620 812 c0 -5 7 -15 15 -22 8 -7 15 -9 15 -6 0 4 -7 14 -15 22 -8 9
-15 11 -15 6z"/>
<path d="M2540 794 c-6 -16 -12 -34 -14 -40 -2 -6 -1 -16 3 -23 5 -8 13 5 21
34 14 51 6 74 -10 29z"/>
<path d="M3688 797 c-3 -19 -2 -25 4 -19 6 6 8 18 6 28 -3 14 -5 12 -10 -9z"/>
<path d="M1800 803 c1 -12 39 -79 40 -70 0 12 -28 77 -34 77 -4 0 -6 -3 -6 -7z"/>
<path d="M2110 801 c0 -5 5 -13 10 -16 6 -3 10 -2 10 4 0 5 -4 13 -10 16 -5 3
-10 2 -10 -4z"/>
<path d="M2626 802 c-8 -14 -38 -202 -34 -220 2 -9 10 24 17 73 7 50 16 105
21 123 8 31 7 41 -4 24z"/>
<path d="M2230 788 c0 -23 12 -58 19 -58 4 0 5 16 3 35 -4 32 -22 51 -22 23z"/>
<path d="M2581 795 c-1 -5 -4 -23 -6 -40 -2 -16 -7 -41 -9 -55 -3 -14 -8 -46
-12 -72 -4 -27 -11 -48 -16 -48 -6 0 -7 -7 -4 -16 3 -8 1 -24 -5 -36 -6 -11
-7 -27 -3 -36 5 -12 11 2 21 43 27 117 44 220 40 245 -2 14 -5 21 -6 15z"/>
<path d="M2701 754 c0 -11 3 -14 6 -6 3 7 2 16 -1 19 -3 4 -6 -2 -5 -13z"/>
<path d="M4141 750 c-1 -14 -4 -36 -7 -50 -6 -24 -6 -24 11 -8 15 14 16 22 8
50 -10 30 -11 30 -12 8z"/>
<path d="M2480 719 c0 -5 5 -7 10 -4 6 3 10 8 10 11 0 2 -4 4 -10 4 -5 0 -10
-5 -10 -11z"/>
<path d="M2661 714 c0 -11 3 -14 6 -6 3 7 2 16 -1 19 -3 4 -6 -2 -5 -13z"/>
<path d="M3622 704 c-23 -14 -42 -27 -42 -30 0 -6 73 25 84 36 21 21 -2 18
-42 -6z"/>
<path d="M3201 704 c0 -11 3 -14 6 -6 3 7 2 16 -1 19 -3 4 -6 -2 -5 -13z"/>
<path d="M1850 705 c0 -5 5 -17 10 -25 5 -8 10 -10 10 -5 0 6 -5 17 -10 25 -5
8 -10 11 -10 5z"/>
<path d="M2455 700 c-3 -5 -1 -10 4 -10 6 0 11 5 11 10 0 6 -2 10 -4 10 -3 0
-8 -4 -11 -10z"/>
<path d="M2522 690 c0 -14 2 -19 5 -12 2 6 2 18 0 25 -3 6 -5 1 -5 -13z"/>
<path d="M3162 694 l-23 -11 23 -6 c26 -7 31 -4 26 15 -2 11 -8 12 -26 2z"/>
<path d="M4075 684 c-16 -14 -54 -36 -82 -50 -29 -14 -53 -30 -53 -36 0 -6 8
-7 18 -3 9 4 29 11 43 15 24 7 115 87 108 95 -2 2 -17 -8 -34 -21z"/>
<path d="M482 650 c0 -14 2 -19 5 -12 2 6 2 18 0 25 -3 6 -5 1 -5 -13z"/>
<path d="M2250 646 c0 -8 7 -22 16 -31 13 -13 19 -13 31 -3 12 10 17 9 25 -5
9 -16 11 -16 39 0 28 17 38 33 20 33 -5 0 -11 -7 -15 -15 -8 -21 -36 -7 -36
18 0 21 0 21 -16 -1 -19 -27 -44 -29 -44 -2 0 11 -4 20 -10 20 -5 0 -10 -6
-10 -14z"/>
<path d="M3293 648 c-18 -5 -33 -13 -33 -18 0 -8 57 4 68 15 11 10 -4 12 -35
3z"/>
<path d="M2506 631 c-10 -11 -14 -25 -10 -36 4 -9 2 -20 -5 -24 -7 -5 -9 -15
-4 -29 6 -16 11 -8 23 44 9 35 15 64 15 64 -1 0 -9 -8 -19 -19z"/>
<path d="M2430 624 c0 -8 5 -12 10 -9 6 3 10 10 10 16 0 5 -4 9 -10 9 -5 0
-10 -7 -10 -16z"/>
<path d="M1890 625 c0 -5 5 -17 10 -25 5 -8 10 -10 10 -5 0 6 -5 17 -10 25 -5
8 -10 11 -10 5z"/>
<path d="M3413 616 c5 -14 49 -15 54 -1 1 6 -11 10 -27 11 -19 1 -29 -3 -27
-10z"/>
<path d="M2155 600 c4 -6 11 -8 16 -5 5 4 9 -1 9 -10 0 -11 5 -15 14 -12 8 3
20 0 26 -8 6 -7 22 -16 35 -19 14 -4 25 -13 25 -22 0 -14 2 -14 16 0 8 9 23
16 32 16 12 0 13 3 4 12 -9 9 -15 9 -24 0 -14 -14 -32 -16 -23 -3 3 5 -5 11
-17 13 -16 2 -22 9 -21 23 1 11 0 15 -3 8 -4 -8 -12 -8 -32 3 -31 16 -66 19
-57 4z"/>
<path d="M3500 600 c-9 -6 -10 -10 -3 -10 6 0 15 5 18 10 8 12 4 12 -15 0z"/>
<path d="M3526 584 c-4 -10 -1 -14 6 -12 15 5 23 28 10 28 -5 0 -13 -7 -16
-16z"/>
<path d="M2357 583 c-10 -9 -8 -33 2 -33 5 0 11 9 14 20 5 20 -3 26 -16 13z"/>
<path d="M2143 562 c10 -10 14 -22 10 -27 -5 -4 -2 -5 5 -1 8 5 12 0 12 -13 0
-11 5 -23 10 -26 6 -3 10 0 10 9 0 8 3 22 6 30 5 12 2 15 -10 10 -10 -4 -16
-1 -16 9 0 8 -7 18 -16 21 -26 10 -28 7 -11 -12z"/>
<path d="M2420 562 c0 -6 5 -14 11 -18 7 -4 1 -15 -17 -29 -16 -13 -25 -27
-20 -32 4 -4 15 2 23 15 9 12 22 22 29 22 19 0 18 7 -6 32 -11 12 -20 17 -20
10z"/>
<path d="M2378 533 c7 -3 16 -2 19 1 4 3 -2 6 -13 5 -11 0 -14 -3 -6 -6z"/>
<path d="M4221 503 c-1 -19 12 -51 33 -85 19 -29 44 -68 55 -87 33 -52 61
-140 62 -196 0 -27 4 -59 9 -70 13 -28 2 107 -13 165 -12 49 -46 120 -91 189
-15 24 -34 60 -41 80 l-14 36 0 -32z"/>
<path d="M445 510 c-3 -5 -1 -10 4 -10 6 0 11 5 11 10 0 6 -2 10 -4 10 -3 0
-8 -4 -11 -10z"/>
<path d="M2221 503 c28 -31 47 -81 37 -91 -6 -6 0 -8 16 -5 32 6 45 23 18 23
-19 0 -47 44 -37 59 2 5 -8 14 -23 20 -25 12 -26 12 -11 -6z"/>
<path d="M2330 512 c0 -4 5 -13 11 -19 8 -8 6 -19 -7 -39 -18 -29 -18 -29 2
-11 11 9 26 17 32 17 7 0 12 5 12 10 0 6 -4 10 -10 10 -5 0 -10 9 -10 20 0 11
-7 20 -15 20 -8 0 -15 -4 -15 -8z"/>
<path d="M2475 500 c-3 -5 -1 -10 4 -10 6 0 11 5 11 10 0 6 -2 10 -4 10 -3 0
-8 -4 -11 -10z"/>
<path d="M2591 494 c0 -11 3 -14 6 -6 3 7 2 16 -1 19 -3 4 -6 -2 -5 -13z"/>
<path d="M1026 485 c4 -8 10 -15 15 -15 4 0 6 7 3 15 -4 8 -10 15 -15 15 -4 0
-6 -7 -3 -15z"/>
<path d="M2285 483 c22 -15 32 -16 39 -4 3 5 -8 11 -26 13 -28 5 -29 4 -13 -9z"/>
<path d="M396 428 c-29 -67 -49 -148 -36 -148 5 0 11 6 13 13 4 9 8 8 16 -3 9
-13 11 -13 11 3 0 9 -4 17 -10 17 -14 0 -13 44 2 76 12 26 13 26 18 5 7 -33
24 -30 31 4 4 17 7 22 8 13 0 -10 6 -18 12 -18 7 0 8 7 4 18 -5 9 -13 32 -19
50 -6 17 -14 32 -17 32 -4 0 -19 -28 -33 -62z"/>
<path d="M1965 460 c4 -14 12 -29 17 -35 7 -7 8 -2 3 15 -4 14 -12 30 -17 35
-7 7 -8 2 -3 -15z"/>
<path d="M2420 460 c0 -5 6 -10 14 -10 8 0 18 5 21 10 3 6 -3 10 -14 10 -12 0
-21 -4 -21 -10z"/>
<path d="M2516 455 c-3 -9 -6 -26 -5 -38 1 -14 4 -9 9 13 9 37 7 52 -4 25z"/>
<path d="M4088 464 c-4 -3 -26 -7 -50 -9 -23 -2 -50 -5 -58 -6 -8 0 5 -5 30
-10 45 -9 100 3 100 22 0 10 -14 12 -22 3z"/>
<path d="M2382 438 c-14 -14 -16 -32 -3 -23 5 3 12 -4 16 -15 3 -11 11 -20 17
-20 5 0 7 7 4 16 -3 9 -6 24 -6 35 0 22 -11 24 -28 7z"/>
<path d="M2577 421 c-4 -18 -6 -50 -6 -70 1 -27 4 -21 10 24 10 66 6 100 -4
46z"/>
<path d="M2450 426 c0 -9 5 -16 10 -16 6 0 10 4 10 9 0 6 -4 13 -10 16 -5 3
-10 -1 -10 -9z"/>
<path d="M3921 407 c-6 -8 -8 -17 -4 -20 7 -8 33 11 33 24 0 13 -16 11 -29 -4z"/>
<path d="M3968 413 c7 -3 16 -2 19 1 4 3 -2 6 -13 5 -11 0 -14 -3 -6 -6z"/>
<path d="M2345 400 c3 -5 8 -10 11 -10 2 0 4 5 4 10 0 6 -5 10 -11 10 -5 0 -7
-4 -4 -10z"/>
<path d="M4166 379 c-27 -27 -27 -29 -7 -29 11 0 21 -4 21 -10 0 -13 -6 -13
-31 1 -15 8 -35 7 -72 -2 -58 -14 -83 -29 -49 -29 12 0 22 -4 22 -9 0 -15 52
-22 85 -12 28 9 26 9 -19 10 -63 1 -50 16 14 17 42 1 49 -2 52 -19 4 -28 28
-34 28 -7 0 13 5 20 13 18 6 -3 12 -13 12 -24 0 -14 -9 -21 -35 -26 -32 -6
-31 -6 10 -5 45 2 45 2 42 36 -2 26 -48 126 -55 120 -1 -1 -15 -14 -31 -30z"/>
<path d="M2305 391 c-6 -11 9 -23 19 -14 9 9 7 23 -3 23 -6 0 -12 -4 -16 -9z"/>
<path d="M2461 384 c0 -11 3 -14 6 -6 3 7 2 16 -1 19 -3 4 -6 -2 -5 -13z"/>
<path d="M2821 369 c-6 -18 -11 -37 -10 -43 0 -6 7 7 15 28 8 22 12 41 10 43
-2 2 -9 -10 -15 -28z"/>
<path d="M3740 381 c0 -6 4 -13 10 -16 6 -3 7 1 4 9 -7 18 -14 21 -14 7z"/>
<path d="M2371 364 c0 -11 3 -14 6 -6 3 7 2 16 -1 19 -3 4 -6 -2 -5 -13z"/>
<path d="M2490 360 c0 -11 4 -20 9 -20 5 0 7 9 4 20 -3 11 -7 20 -9 20 -2 0
-4 -9 -4 -20z"/>
<path d="M3885 370 c-3 -5 -2 -10 4 -10 5 0 13 5 16 10 3 6 2 10 -4 10 -5 0
-13 -4 -16 -10z"/>
<path d="M2430 359 c0 -5 5 -7 10 -4 6 3 10 8 10 11 0 2 -4 4 -10 4 -5 0 -10
-5 -10 -11z"/>
<path d="M4261 363 c0 -4 4 -17 9 -28 8 -19 9 -19 9 2 1 12 -3 25 -9 28 -5 3
-10 3 -9 -2z"/>
<path d="M2310 350 c0 -6 9 -19 20 -30 11 -11 20 -27 20 -35 0 -8 4 -15 10
-15 12 0 8 27 -8 56 -12 23 -42 40 -42 24z"/>
<path d="M2268 328 c7 -7 12 -18 12 -26 0 -13 44 -62 56 -62 2 0 4 9 4 20 0
11 -6 20 -12 20 -7 0 -21 14 -30 30 -9 17 -23 30 -30 30 -9 0 -9 -3 0 -12z"/>
<path d="M3706 313 c-5 -11 8 -29 41 -60 74 -66 89 -56 23 17 -22 24 -40 48
-40 52 0 15 -18 8 -24 -9z"/>
<path d="M720 283 c-14 -3 -28 -11 -32 -18 -4 -7 -19 -11 -35 -8 -27 4 -27 4
-9 -11 11 -9 26 -16 34 -16 7 0 11 -4 8 -9 -3 -5 14 -14 39 -20 25 -6 45 -15
45 -20 0 -5 15 -12 34 -15 19 -4 39 -13 46 -21 13 -16 110 -22 110 -7 0 5 12
13 28 19 26 10 25 11 -16 12 -24 1 -41 5 -38 9 6 9 -32 33 -124 79 -67 33 -60
31 -90 26z m90 -63 c8 -5 11 -10 5 -10 -5 0 -17 5 -25 10 -8 5 -10 10 -5 10 6
0 17 -5 25 -10z"/>
<path d="M2477 271 c-4 -17 -3 -21 5 -13 5 5 8 16 6 23 -3 8 -7 3 -11 -10z"/>
<path d="M2051 271 c-1 -13 7 -34 48 -121 l11 -25 -6 25 c-3 14 -12 39 -20 56
-7 17 -18 42 -23 55 -5 13 -10 18 -10 10z"/>
<path d="M2430 261 c15 -30 30 -35 17 -6 -7 14 -16 25 -20 25 -4 0 -3 -9 3
-19z"/>
<path d="M2361 244 c-20 -19 -22 -26 -12 -38 7 -8 10 -20 6 -26 -3 -6 3 -10
14 -10 24 0 28 18 6 26 -8 4 -15 15 -15 25 0 14 7 19 25 19 26 0 34 14 13 22
-7 3 -24 -5 -37 -18z"/>
<path d="M2503 225 c0 -22 2 -30 4 -17 2 12 2 30 0 40 -3 9 -5 -1 -4 -23z"/>
<path d="M3696 238 c-9 -34 -7 -90 3 -84 8 5 15 106 7 106 -2 0 -6 -10 -10
-22z"/>
<path d="M564 224 c5 -13 3 -14 -6 -7 -16 13 -66 14 -74 2 -3 -5 1 -10 8 -10
7 -1 18 -2 23 -4 6 -1 22 -3 36 -3 16 -1 44 -18 69 -42 23 -22 52 -40 64 -40
21 1 21 1 1 12 -11 7 -41 33 -67 60 -49 50 -64 59 -54 32z"/>
<path d="M2400 221 c0 -6 5 -13 10 -16 6 -3 10 1 10 9 0 9 -4 16 -10 16 -5 0
-10 -4 -10 -9z"/>
<path d="M2471 204 c0 -11 3 -14 6 -6 3 7 2 16 -1 19 -3 4 -6 -2 -5 -13z"/>
<path d="M2303 193 c9 -9 20 -13 24 -9 4 4 1 11 -7 16 -25 16 -35 11 -17 -7z"/>
<path d="M2454 166 c-3 -8 -1 -23 5 -33 9 -15 10 -13 11 15 0 34 -7 42 -16 18z"/>
<path d="M2491 170 c-1 -8 -4 -26 -7 -40 -5 -22 -4 -23 6 -7 6 10 9 28 7 40
-2 12 -5 15 -6 7z"/>
<path d="M4090 174 c0 -1 20 -17 45 -34 37 -25 49 -29 60 -20 11 9 23 9 45 1
31 -10 60 -6 60 10 0 5 -12 11 -27 15 -16 3 -39 10 -53 15 -25 9 -130 20 -130
13z m97 -30 c-3 -3 -12 -4 -19 -1 -8 3 -5 6 6 6 11 1 17 -2 13 -5z"/>
<path d="M2395 158 c-3 -8 1 -28 10 -44 l16 -29 -7 40 c-8 47 -11 53 -19 33z"/>
<path d="M3963 141 c-18 -15 -33 -33 -33 -40 0 -7 -6 -11 -13 -8 -8 3 -20 1
-28 -4 -10 -6 -5 -9 16 -9 19 0 39 10 54 25 13 14 32 25 42 25 10 0 19 5 19
10 0 6 7 10 15 10 8 0 15 5 15 10 0 20 -56 8 -87 -19z"/>
<path d="M2330 142 c0 -14 37 -44 43 -35 3 4 -6 16 -19 26 -13 10 -24 14 -24
9z"/>
<path d="M2731 134 c0 -11 3 -14 6 -6 3 7 2 16 -1 19 -3 4 -6 -2 -5 -13z"/>
<path d="M4105 116 c35 -18 64 -21 49 -6 -5 5 -25 12 -44 15 l-35 5 30 -14z"/>
<path d="M2120 102 c6 -13 14 -21 18 -18 3 4 -2 14 -12 24 -18 16 -18 16 -6
-6z"/>
<path d="M2370 86 c0 -2 7 -9 15 -16 9 -7 15 -8 15 -2 0 5 -7 12 -15 16 -8 3
-15 4 -15 2z"/>
</g>
</svg>
