<?xml version="1.0" standalone="no"?>
<!DOCTYPE svg PUBLIC "-//W3C//DTD SVG 20010904//EN"
 "http://www.w3.org/TR/2001/REC-SVG-20010904/DTD/svg10.dtd">
<svg version="1.0" xmlns="http://www.w3.org/2000/svg"
 width="1042.000000pt" height="1042.000000pt" viewBox="0 0 1042.000000 1042.000000"
 preserveAspectRatio="xMidYMid meet">
<metadata>
Created by potrace 1.14, written by Peter Selinger 2001-2017
</metadata>
<g transform="translate(0.000000,1042.000000) scale(0.100000,-0.100000)"
fill="#000000" stroke="none">
<path d="M6547 8411 c-93 -94 -97 -100 -97 -142 0 -41 4 -47 103 -146 99 -99
105 -103 147 -103 42 0 48 4 147 103 99 99 103 105 103 146 0 42 -4 48 -97
142 l-97 99 -56 0 -56 0 -97 -99z"/>
<path d="M4720 7509 c-116 -23 -120 -26 -726 -633 -532 -531 -574 -576 -605
-641 -32 -65 -34 -76 -34 -170 1 -184 -39 -133 629 -803 662 -664 636 -643
795 -650 99 -5 184 18 255 68 23 16 216 204 429 418 l389 389 -50 59 c-120
144 -210 199 -315 192 -113 -7 -175 -53 -383 -279 -75 -82 -131 -115 -225
-135 -86 -18 -161 -9 -238 27 -53 25 -472 434 -522 509 -63 94 -78 236 -38
346 20 54 41 79 273 310 292 293 300 298 461 299 83 0 96 -3 158 -33 57 -29
83 -51 183 -163 170 -190 251 -249 344 -249 84 0 181 64 290 191 l62 72 -403
403 c-427 428 -453 449 -567 473 -60 13 -98 13 -162 0z"/>
<path d="M5840 7484 c-37 -25 -248 -233 -281 -278 -35 -47 -38 -103 -9 -150
18 -31 121 -117 260 -221 191 -142 219 -214 128 -332 -89 -117 -200 -218 -283
-259 -70 -35 -86 -39 -155 -39 -68 0 -85 4 -151 37 -81 40 -152 103 -306 274
-51 57 -109 109 -130 120 -53 25 -145 24 -198 -4 -56 -29 -470 -447 -489 -494
-22 -51 -20 -134 3 -183 26 -55 453 -479 503 -500 52 -21 120 -19 178 6 39 17
73 48 162 147 179 199 269 253 423 253 153 1 238 -50 416 -248 84 -93 135
-141 163 -154 53 -24 139 -24 191 0 25 12 122 102 267 247 238 241 248 255
248 343 0 87 -13 105 -234 329 -116 118 -259 256 -317 308 -169 150 -182 199
-74 270 50 33 64 38 134 42 72 4 83 2 130 -23 28 -16 79 -58 113 -94 110 -115
133 -131 191 -131 l50 0 150 148 c153 151 177 182 177 227 0 45 -24 76 -177
228 l-150 147 -54 0 -54 0 -105 -109 c-144 -148 -203 -176 -307 -146 -52 15
-68 27 -163 125 -58 59 -115 113 -127 119 -32 16 -95 14 -123 -5z"/>
<path d="M5790 4230 c-174 -22 -281 -195 -224 -363 18 -54 75 -117 136 -149
61 -33 204 -33 264 -1 105 56 154 134 154 243 0 173 -147 294 -330 270z m140
-59 c20 -10 48 -38 64 -65 26 -41 30 -60 34 -134 4 -80 2 -91 -25 -141 -21
-41 -39 -60 -72 -78 -48 -25 -120 -30 -168 -12 -129 48 -167 275 -64 390 61
68 147 83 231 40z"/>
<path d="M3540 4203 c0 -16 -3 -45 -6 -65 -9 -52 16 -51 38 2 22 53 48 61 174
58 l103 -3 -178 -245 c-98 -135 -177 -248 -175 -251 7 -12 466 -7 469 5 2 6 6
44 10 84 5 60 4 72 -9 72 -9 0 -20 -18 -28 -46 -22 -77 -40 -85 -196 -82
l-132 3 175 242 c96 134 175 245 175 248 0 3 -94 5 -210 5 l-210 0 0 -27z"/>
<path d="M4090 4216 c0 -7 11 -17 25 -20 19 -5 45 -40 110 -150 82 -139 85
-147 84 -203 -1 -83 -10 -106 -44 -118 -40 -12 -42 -15 -25 -25 17 -11 162
-13 198 -4 31 9 28 20 -8 28 -38 7 -50 36 -50 120 0 60 3 68 71 182 72 122
113 174 136 174 7 0 13 7 13 15 0 12 -16 15 -80 15 -64 0 -80 -3 -80 -15 0 -8
9 -15 19 -15 24 0 31 -18 19 -50 -12 -32 -97 -178 -108 -185 -10 -6 -120 182
-123 209 -1 15 5 22 28 26 64 11 27 25 -77 28 -88 2 -108 0 -108 -12z"/>
<path d="M4715 4220 c-4 -6 7 -15 24 -21 18 -7 33 -20 36 -32 3 -12 4 -112 3
-222 l-3 -199 -30 -16 c-42 -21 -41 -20 -26 -30 15 -9 147 -11 168 -3 22 9 14
21 -17 28 -19 4 -32 14 -35 28 -3 12 -4 101 -3 196 l3 175 94 -217 c52 -120
100 -216 105 -214 6 2 56 104 111 228 l100 224 3 -182 c1 -99 -2 -192 -7 -206
-6 -16 -20 -27 -40 -32 -32 -7 -40 -19 -18 -27 6 -3 46 -6 88 -7 115 -3 166
15 97 35 -45 13 -50 44 -46 259 3 191 9 215 49 215 11 0 19 7 19 15 0 13 -13
15 -77 13 l-78 -3 -86 -193 c-47 -107 -89 -194 -94 -193 -4 0 -45 87 -91 193
l-82 193 -80 3 c-49 2 -83 -1 -87 -8z"/>
<path d="M6280 4215 c0 -9 9 -15 25 -15 14 0 29 -8 35 -19 6 -12 10 -103 10
-225 0 -200 0 -205 -22 -220 -12 -9 -30 -16 -40 -16 -27 0 -21 -17 9 -25 28
-7 170 -5 191 3 18 6 14 22 -6 22 -40 0 -55 24 -58 92 -2 50 1 72 16 96 11 18
23 32 28 32 10 0 162 -188 162 -201 0 -5 -11 -11 -25 -15 -14 -4 -24 -11 -22
-18 2 -7 38 -11 102 -11 64 0 100 4 102 11 2 7 -7 14 -21 18 -23 6 -241 255
-241 276 0 5 35 50 78 100 56 65 87 92 108 97 16 3 29 12 29 19 0 11 -20 14
-85 14 -66 0 -85 -3 -85 -14 0 -7 9 -16 21 -19 12 -3 19 -11 17 -18 -6 -17
-171 -218 -179 -219 -4 0 -6 47 -5 103 1 109 11 137 47 137 11 0 19 7 19 15 0
12 -18 15 -105 15 -87 0 -105 -3 -105 -15z"/>
<path d="M3041 3242 c-13 -4 -33 -20 -45 -35 -30 -40 -14 -74 54 -112 38 -21
55 -37 55 -50 0 -18 -7 -20 -63 -20 -57 0 -63 -2 -60 -20 2 -15 14 -22 46 -29
60 -13 119 6 133 42 17 43 0 73 -61 107 -38 21 -55 37 -55 50 0 17 7 20 53 20
43 -1 52 2 52 16 0 10 -3 20 -8 23 -15 9 -78 14 -101 8z"/>
<path d="M3753 3239 c-17 -5 -43 -23 -57 -40 -35 -41 -37 -132 -4 -174 38 -49
98 -65 171 -44 30 8 37 14 37 36 0 20 -3 24 -17 18 -10 -4 -30 -10 -45 -13
-95 -16 -154 75 -94 145 21 24 31 28 74 27 28 0 58 -6 66 -13 14 -12 16 -10
16 12 0 15 -8 30 -19 36 -29 16 -93 21 -128 10z"/>
<path d="M4125 3239 c-115 -33 -130 -200 -23 -249 52 -23 87 -25 133 -6 25 11
35 21 35 37 0 16 -4 19 -17 14 -10 -4 -38 -10 -63 -12 -79 -9 -125 52 -95 125
21 49 80 64 148 37 13 -6 17 -2 17 18 0 22 -7 28 -37 36 -44 12 -57 12 -98 0z"/>
<path d="M4767 3240 c-43 -13 -57 -29 -57 -66 0 -39 19 -60 78 -85 35 -15 43
-23 40 -41 -3 -21 -8 -23 -65 -22 -56 1 -61 -1 -57 -19 5 -30 11 -32 79 -32
76 0 105 20 105 71 0 39 -19 60 -78 85 -35 15 -43 23 -40 41 3 21 8 23 56 23
43 -1 52 2 52 16 0 10 -3 20 -8 23 -17 10 -79 14 -105 6z"/>
<path d="M5081 3242 c-13 -4 -33 -20 -45 -35 -30 -40 -14 -74 54 -112 38 -21
55 -37 55 -50 0 -18 -7 -20 -63 -20 -57 0 -63 -2 -60 -20 2 -15 14 -22 46 -29
60 -13 119 6 133 42 17 43 0 73 -61 107 -38 21 -55 37 -55 50 0 17 7 20 53 20
43 -1 52 2 52 16 0 10 -3 20 -8 23 -15 9 -78 14 -101 8z"/>
<path d="M3302 3135 c3 -97 5 -106 29 -131 51 -50 160 -38 188 22 6 14 11 67
11 119 0 95 0 95 -25 95 -25 0 -25 -1 -25 -90 0 -77 -3 -93 -20 -110 -23 -23
-58 -26 -86 -6 -16 12 -20 29 -22 110 -4 95 -4 96 -29 96 l-25 0 4 -105z"/>
<path d="M4400 3110 l0 -130 90 0 c83 0 90 1 90 20 0 18 -7 20 -60 20 l-60 0
0 35 c0 35 0 35 45 35 38 0 45 3 45 20 0 17 -7 20 -45 20 -45 0 -45 0 -45 35
l0 35 60 0 c53 0 60 2 60 20 0 19 -7 20 -90 20 l-90 0 0 -130z"/>
<path d="M5623 3110 l-51 -130 28 0 c22 0 30 6 39 31 10 29 12 30 63 27 46 -3
54 -6 66 -30 9 -20 21 -28 38 -28 30 0 31 -7 -30 146 -41 101 -46 109 -72 112
-28 3 -30 -1 -81 -128z m111 -7 c7 -21 4 -23 -33 -23 l-40 0 13 33 c7 17 17
41 21 52 7 18 8 17 20 -10 7 -16 16 -40 19 -52z"/>
<path d="M5970 3110 l0 -130 30 0 c30 0 30 1 30 55 l0 55 60 0 60 0 0 -55 c0
-52 1 -55 25 -55 l25 0 0 130 0 130 -24 0 c-23 0 -25 -4 -28 -52 l-3 -53 -57
-3 -58 -3 0 56 c0 54 0 55 -30 55 l-30 0 0 -130z"/>
<path d="M6340 3110 l0 -130 90 0 c83 0 90 1 90 20 0 18 -7 20 -60 20 l-60 0
0 35 c0 35 0 35 45 35 38 0 45 3 45 20 0 17 -7 20 -45 20 -45 0 -45 0 -45 35
l0 35 60 0 c53 0 60 2 60 20 0 19 -7 20 -90 20 l-90 0 0 -130z"/>
<path d="M6703 3110 l-51 -130 28 0 c22 0 30 6 39 31 10 29 12 30 63 27 46 -3
54 -6 66 -30 9 -20 21 -28 38 -28 30 0 31 -7 -30 146 -41 101 -46 109 -72 112
-28 3 -30 -1 -81 -128z m111 -7 c7 -21 4 -23 -33 -23 l-40 0 13 33 c7 17 17
41 21 52 7 18 8 17 20 -10 7 -16 16 -40 19 -52z"/>
<path d="M7050 3110 l0 -130 70 0 c114 0 160 36 160 123 0 98 -47 137 -165
137 l-65 0 0 -130z m133 79 c39 -17 58 -78 41 -124 -8 -20 -56 -45 -89 -45
-25 0 -25 0 -25 90 0 89 0 90 25 90 13 0 35 -5 48 -11z"/>
</g>
</svg>
